<svg xmlns="http://www.w3.org/2000/svg" width="21.666" height="24.762" viewBox="0 0 21.666 24.762">
  <path id="Icon_awesome-user-graduate" data-name="Icon awesome-user-graduate" d="M15.447,15.5l-4.614,4.614L6.219,15.5A6.485,6.485,0,0,0,0,21.975v.464A2.322,2.322,0,0,0,2.321,24.76H19.345a2.322,2.322,0,0,0,2.321-2.321v-.464A6.485,6.485,0,0,0,15.447,15.5ZM.658,3.859l.31.073V6.756A1.117,1.117,0,0,0,.924,8.69L.169,11.7c-.082.334.1.677.368.677H2.558c.266,0,.45-.343.368-.677L2.171,8.69a1.117,1.117,0,0,0-.044-1.934V4.212l3.192.769a6.179,6.179,0,1,0,11.7,2.757,6.08,6.08,0,0,0-.677-2.757L21,3.859a.77.77,0,0,0,0-1.523L11.8.111a4.154,4.154,0,0,0-1.92,0L.658,2.33a.773.773,0,0,0,0,1.528Z" transform="translate(0 0.002)" fill="#4b5687"/>
</svg>
