<svg xmlns="http://www.w3.org/2000/svg" width="24.829" height="24.762" viewBox="0 0 24.829 24.762">
  <g id="blackboard" transform="translate(0 -0.697)">
    <g id="Group_700" data-name="Group 700" transform="translate(0 0.697)">
      <path id="Path_175" data-name="Path 175" d="M24.088,16.879h-.618V3.168a1.219,1.219,0,0,0-1.235-1.112H13.712l-.124-.494A1.227,1.227,0,0,0,12.353.7a1.189,1.189,0,0,0-1.235.865l-.124.494H2.471A1.219,1.219,0,0,0,1.235,3.168V16.879H.618A.584.584,0,0,0,0,17.5v1.235a.584.584,0,0,0,.618.618H5.312L3.829,23.921A1.172,1.172,0,0,0,4.694,25.4a1.27,1.27,0,0,0,1.482-.865l1.729-5.312h9.018l1.729,5.312a1.207,1.207,0,0,0,1.482.865A1.342,1.342,0,0,0,21,23.921L19.518,19.35h4.694a.584.584,0,0,0,.618-.618V17.5A.783.783,0,0,0,24.088,16.879Zm-3.088,0H16.059V14.409H21v2.471Z" transform="translate(0 -0.697)" fill="#4b5687"/>
    </g>
  </g>
</svg>
