<svg xmlns="http://www.w3.org/2000/svg" width="27.211" height="24.762" viewBox="0 0 27.211 24.762">
  <g id="checking-attendance" transform="translate(0 -0.706)">
    <g id="Group_794" data-name="Group 794" transform="translate(0 0.706)">
      <path id="Path_192" data-name="Path 192" d="M3.061,8.343a1.443,1.443,0,0,0,.361.786c.35,2.334,2.3,4.5,4.085,4.5,2.079,0,3.973-2.344,4.337-4.495a1.425,1.425,0,0,0,.368-.791c.118-.437.271-1.2,0-1.554a.648.648,0,0,0-.043-.05c.251-.917.569-2.814-.567-4.106A4.2,4.2,0,0,0,9.5,1.34l-.65-.224A10.4,10.4,0,0,0,7.08.708.457.457,0,0,0,6.935.72a.732.732,0,0,1-.264.031,1.8,1.8,0,0,0-.709.121,5.089,5.089,0,0,0-2.794,2.8,6.281,6.281,0,0,0,.024,2.993.577.577,0,0,0-.134.127C2.788,7.146,2.941,7.906,3.061,8.343Z" transform="translate(2.135 -0.706)" fill="#4b5687"/>
      <path id="Path_193" data-name="Path 193" d="M13.5,18.079c-.383-.215-.8-.421-1.243-.617-.215-.1-.434-.186-.65-.271-.17-.064-.371-.147-.512-.184l-2.057-.555,3.848-7.835,1.649,1.04c.349.218.605.4.886.61l.059.043q.419.31.822.636a20.462,20.462,0,0,1,1.581,1.41l.108.106c.161-.179.319-.338.477-.51a6.757,6.757,0,0,0-.744-1.6A3.3,3.3,0,0,0,16.3,9.4s-.085-.026-.215-.069a16.155,16.155,0,0,0-1.741-.687c-.182-.066-.342-.13-.486-.192-.607-.3-1.112-.638-1.216-.957,0,0,.35,3.39-2.613,3.47l-.413-.019C6.926,10.7,6.747,7.484,6.747,7.484c-.281.883-3.659,1.909-3.659,1.909a3.3,3.3,0,0,0-1.429.964C.175,12.56,0,17.46,0,17.46.019,18.58.5,18.7.5,18.7c3.414,1.524,8.771,1.793,8.771,1.793.29.007.558-.009.827-.024l.007.028a37.254,37.254,0,0,0,5.357-.734l-.335-.439A5.715,5.715,0,0,0,13.5,18.079Z" transform="translate(0 4.269)" fill="#4b5687"/>
      <path id="Path_194" data-name="Path 194" d="M7.222,7.652c.036-.047.076-.094.114-.146a.338.338,0,0,1-.01-.047C7.293,7.528,7.255,7.585,7.222,7.652Z" transform="translate(5.302 4.252)" fill="#4b5687"/>
      <path id="Path_195" data-name="Path 195" d="M3.907,7.5,3.9,7.46,3.891,7.5c0-.007.009-.014.01-.021A.052.052,0,0,1,3.907,7.5Z" transform="translate(2.856 4.252)" fill="#4b5687"/>
      <path id="Path_196" data-name="Path 196" d="M19.183,9.071a25.006,25.006,0,0,0-2.743,2.28c-.865.822-1.686,1.687-2.475,2.58-.293.333-.577.669-.86,1.008a.07.07,0,0,1-.009-.016,13.6,13.6,0,0,0-1.335-1.512c-.468-.461-.954-.888-1.453-1.294-.251-.2-.5-.4-.763-.593s-.5-.369-.834-.577l-2.05,4.17c.187.05.46.156.69.246s.484.194.723.3c.479.212.945.442,1.391.69a7.3,7.3,0,0,1,2.169,1.7l1.576,2.067.907-1.966c.456-.985,1-2.015,1.562-3s1.169-1.958,1.823-2.892A23.607,23.607,0,0,1,19.641,9.6a10.563,10.563,0,0,1,2.681-2.143A11.1,11.1,0,0,0,19.183,9.071Z" transform="translate(4.89 4.249)" fill="#4b5687"/>
    </g>
  </g>
</svg>
