<svg xmlns="http://www.w3.org/2000/svg" width="24.763" height="24.762" viewBox="0 0 24.763 24.762">
  <g id="logout" transform="translate(0 -0.004)">
    <path id="Path_181" data-name="Path 181" d="M15.476,13.417a1.031,1.031,0,0,0-1.032,1.032v4.127a1.033,1.033,0,0,1-1.032,1.032h-3.1V4.131A2.08,2.08,0,0,0,8.912,2.169l-.305-.1h4.806A1.033,1.033,0,0,1,14.445,3.1v3.1a1.032,1.032,0,1,0,2.063,0V3.1a3.1,3.1,0,0,0-3.1-3.1H2.321a.81.81,0,0,0-.11.023c-.05,0-.1-.023-.148-.023A2.066,2.066,0,0,0,0,2.067V20.639A2.08,2.08,0,0,0,1.405,22.6l6.209,2.07a2.136,2.136,0,0,0,.64.1A2.066,2.066,0,0,0,10.318,22.7V21.671h3.1a3.1,3.1,0,0,0,3.1-3.1V14.448a1.031,1.031,0,0,0-1.032-1.032Zm0,0" fill="#4b5687"/>
    <path id="Path_182" data-name="Path 182" d="M288.379,111.1l-4.127-4.127a1.031,1.031,0,0,0-1.761.729v3.1h-4.127a1.032,1.032,0,1,0,0,2.063h4.127v3.1a1.031,1.031,0,0,0,1.761.73l4.127-4.127a1.031,1.031,0,0,0,0-1.459Zm0,0" transform="translate(-263.919 -101.503)" fill="#4b5687"/>
  </g>
</svg>
