<svg xmlns="http://www.w3.org/2000/svg" width="24.763" height="24.762" viewBox="0 0 24.763 24.762">
  <g id="money" transform="translate(-0.001 -0.006)">
    <g id="Group_786" data-name="Group 786" transform="translate(0.001 11.504)">
      <g id="Group_785" data-name="Group 785" transform="translate(0)">
        <path id="Path_181" data-name="Path 181" d="M.338,238.665a.516.516,0,0,0-.306.66l.324.891,2.467-2.467Z" transform="translate(-0.001 -237.75)" fill="#4b5687"/>
      </g>
    </g>
    <g id="Group_788" data-name="Group 788" transform="translate(2.673 20.343)">
      <g id="Group_787" data-name="Group 787">
        <path id="Path_182" data-name="Path 182" d="M55.257,420.513l1.486,4.086a.511.511,0,0,0,.267.291.519.519,0,0,0,.218.048.505.505,0,0,0,.179-.032l1.639-.6Z" transform="translate(-55.257 -420.513)" fill="#4b5687"/>
      </g>
    </g>
    <g id="Group_790" data-name="Group 790" transform="translate(13.774 12.18)">
      <g id="Group_789" data-name="Group 789">
        <path id="Path_183" data-name="Path 183" d="M295.741,256.4l-1.7-4.675L289.96,255.8l2.022-.745a.516.516,0,0,1,.357.968l-2.569.947a.515.515,0,0,1-.662-.305s0-.006,0-.009l-4.324,4.324,10.652-3.925A.514.514,0,0,0,295.741,256.4Z" transform="translate(-284.783 -251.724)" fill="#4b5687"/>
      </g>
    </g>
    <g id="Group_792" data-name="Group 792" transform="translate(0.001 0.006)">
      <g id="Group_791" data-name="Group 791" transform="translate(0 0)">
        <path id="Path_184" data-name="Path 184" d="M24.63,8.411,16.376.157a.516.516,0,0,0-.729,0L.17,15.633a.516.516,0,0,0,0,.729l8.254,8.254a.511.511,0,0,0,.364.152.518.518,0,0,0,.365-.151L24.63,9.141A.517.517,0,0,0,24.63,8.411ZM6.058,14.3,3.995,16.364a.516.516,0,0,1-.73-.729l2.064-2.064a.516.516,0,0,1,.73.73Zm8.909.655a1.947,1.947,0,0,1-1.414.541,4.263,4.263,0,0,1-2.869-1.37A4.727,4.727,0,0,1,9.4,11.93a2.155,2.155,0,0,1,.459-2.087,2.149,2.149,0,0,1,2.087-.459,4.718,4.718,0,0,1,2.2,1.289C15.571,12.1,15.936,13.986,14.967,14.955Zm6.567-5.814L19.471,11.2a.516.516,0,1,1-.73-.729L20.8,8.412a.516.516,0,0,1,.73.729Z" transform="translate(-0.019 -0.006)" fill="#4b5687"/>
      </g>
    </g>
  </g>
</svg>
