<svg xmlns="http://www.w3.org/2000/svg" width="25.019" height="24.762" viewBox="0 0 25.019 24.762">
  <g id="Group_793" data-name="Group 793" transform="translate(888.019 -782)">
    <g id="new-year" transform="translate(-888.017 782)">
      <path id="Path_185" data-name="Path 185" d="M110.656,222.312c1.776,0,2.669-.857,2.669-2.547v-3.437c0-1.69-.892-2.547-2.669-2.547s-2.656.857-2.656,2.547v3.437C108,221.455,108.888,222.312,110.656,222.312Zm-1.694-5.984a1.673,1.673,0,1,1,3.336,0v3.437a1.673,1.673,0,1,1-3.336,0Zm0,0" transform="translate(-101.073 -200.067)" fill="#4b5687"/>
      <path id="Path_186" data-name="Path 186" d="M139.635,246.277c.545,0,.648-.3.648-.784v-3.437c0-.652-.244-.784-.648-.784-.324,0-.635.061-.635.784v3.437C139,246.065,139.168,246.277,139.635,246.277Zm0,0" transform="translate(-130.085 -225.795)" fill="#4b5687"/>
      <path id="Path_187" data-name="Path 187" d="M2.022,177.306H22.993a2.03,2.03,0,0,0,2.024-2.053V163H0v12.253a2.031,2.031,0,0,0,2.024,2.053Zm12.63-10.9,1.707-1.035A1.2,1.2,0,0,1,17,165.2a1.306,1.306,0,0,1,1.406,1.149V174.6c0,.669-.609,1.136-1.508,1.136s-1.508-.467-1.508-1.136v-5.768a1.958,1.958,0,0,1-.2.017,1.249,1.249,0,0,1-1.157-1.317,1.275,1.275,0,0,1,.617-1.128ZM5.9,168.8c0-2.271,1.337-3.574,3.682-3.574s3.695,1.3,3.695,3.574v3.437c0,2.271-1.341,3.574-3.695,3.574s-3.682-1.3-3.682-3.574Zm0,0" transform="translate(0 -152.543)" fill="#4b5687"/>
      <path id="Path_188" data-name="Path 188" d="M234.809,214.961a.107.107,0,0,0,.04-.018l.016-.009.38-.233a.532.532,0,0,1,.807.436v6.585c0,.047.214.125.481.125a.805.805,0,0,0,.481-.125V213.5a.611.611,0,0,0-.38-.136.252.252,0,0,0-.1.014l-1.717,1.04a.259.259,0,0,0-.128.249A.353.353,0,0,0,234.809,214.961Zm0,0" transform="translate(-219.632 -199.679)" fill="#4b5687"/>
      <path id="Path_189" data-name="Path 189" d="M25.017,54.034A2.014,2.014,0,0,0,22.994,52H20.655v1.759a.513.513,0,0,1-1.026,0V52H5.708v1.759a.513.513,0,0,1-1.026,0V52H2.023A2.015,2.015,0,0,0,0,54.034v4.06H25.017Zm0,0" transform="translate(-0.001 -48.664)" fill="#4b5687"/>
      <path id="Path_190" data-name="Path 190" d="M74.026.513A.513.513,0,1,0,73,.513V3.336h1.026Zm0,0" transform="translate(-68.319)" fill="#4b5687"/>
      <path id="Path_191" data-name="Path 191" d="M307.026.513a.513.513,0,0,0-1.026,0V3.336h1.026Zm0,0" transform="translate(-286.372)" fill="#4b5687"/>
    </g>
    <rect id="Rectangle_414" data-name="Rectangle 414" width="17" height="12" transform="translate(-884 794)" fill="#4b5687"/>
  </g>
</svg>
